<?xml version="1.0" standalone="no"?> <!DOCTYPE svg PUBLIC "-//W3C//DTD SVG 1.0//EN" "http://www.w3.org/TR/2001/REC-SVG-20010904/DTD/svg10.dtd" > <svg xmlns="http://www.w3.org/2000/svg" width="100%" height="100%">
<defs >
<font id="caecilialtstdheavy" horiz-adv-x="1166" ><font-face
    font-family="Caecilia LT Std Roman"
    units-per-em="2048"
    panose-1="2 6 8 3 5 5 5 2 2 4"
    ascent="1575"
    descent="-473"
    alphabetic="0" />
<missing-glyph horiz-adv-x="1024" d="M0 0V1434H1024V0H0ZM512 809L860 1331H164L512 809ZM573 717L922 195V1239L573 717ZM164 102H860L512 625L164 102ZM102 1239V195L451 717L102 1239Z" />
<glyph unicode=" " glyph-name="space" horiz-adv-x="606" />
<glyph unicode="!" glyph-name="exclam" horiz-adv-x="606" d="M166 459L141 1575H465L440 459H166ZM111 150Q111 237 165 285T303 334Q388 334 442 286T496 150Q496 70 445 18T303 -35Q214 -35 163 17T111 150Z" />
<glyph unicode="&quot;" glyph-name="quotedbl" horiz-adv-x="681" d="M283 1479Q283 1357 246 922Q242 862 219 839T154 815Q112 815 89 838T61 922Q25 1345 25 1479Q25 1531 60 1568T154 1606Q211 1606 247 1569T283 1479ZM657 1479Q657 1345 621 922Q616 862
593 839T528 815Q487 815 464 838T436 922Q399 1357 399 1479Q399 1531 435 1568T528 1606Q586 1606 621 1569T657 1479Z" />
<glyph unicode="#" glyph-name="numbersign" horiz-adv-x="1212" d="M692 592L727 842H518L483 592H692ZM752 1018L807 1434H991L936 1018H1112V842H911L879 592H1053V416H854L799 0H614L670 416H461L403 0H219L276 416H100V592H301L334 842H160V1018H358L414
1434H598L543 1018H752Z" />
<glyph unicode="$" glyph-name="dollar" horiz-adv-x="1212" d="M502 209V610Q270 641 153 735T35 1020Q35 1211 159 1329T502 1468V1743H698V1468Q891 1468 1096 1405V1055H850V1217Q769 1247 698 1247V872Q788 859 856 841T987 789T1090 711T1154 598T1178 442Q1178
347 1147 268T1065 137T950 47T822 -6T698 -25V-299H502V-25Q369 -24 243 -5T41 41V426H328V240Q421 214 502 209ZM502 903V1247Q415 1232 369 1182T322 1061Q322 1023 337 995T379 949T435 921T502 903ZM698 578V209Q784 215 845 271T907 410Q907 555 698 578Z"
/>
<glyph unicode="%" glyph-name="percent" horiz-adv-x="1669" d="M539 1143Q539 1215 507 1260T406 1305Q334 1305 300 1256T266 1130Q266 1061 298 1016T399 971Q473 971 506 1022T539 1143ZM748 1145Q748 987 647 897T397 807Q230 807 144 893T57 1137Q57 1291
158 1379T408 1468Q479 1468 537 1449T634 1398T699 1324T736 1237T748 1145ZM1403 301Q1403 373 1371 418T1270 463Q1198 463 1164 414T1130 289Q1130 219 1162 174T1264 129Q1315 129 1347 157T1391 221T1403 301ZM1612 303Q1612 145 1511 55T1262 -35Q1094 -35
1008 51T922 295Q922 449 1023 538T1272 627Q1344 627 1402 608T1499 557T1563 483T1600 395T1612 303ZM322 -29L1184 1552L1348 1462L485 -119L322 -29Z" />
<glyph unicode="&amp;" glyph-name="ampersand" horiz-adv-x="1517" d="M993 702V899H1452V702H1341Q1329 467 1192 295Q1262 209 1374 209Q1383 209 1446 215V4Q1428 4 1391 2T1337 0Q1216 0 1158 22T1038 117Q940 33 843 -1T606 -35Q380 -35 238 81T96 389Q96
526 169 621T381 799Q283 904 246 974T209 1122Q209 1266 324 1362T623 1458Q801 1458 895 1370T989 1145Q989 942 721 782L1042 446Q1075 492 1097 563T1120 702H993ZM756 1133Q756 1198 714 1230T608 1262Q546 1262 501 1227T455 1122Q455 1034 580 932Q649 960
702 1013T756 1133ZM887 272L526 647Q451 606 409 546T367 416Q367 376 384 337T436 263T530 207T664 186Q784 186 887 272Z" />
<glyph unicode="&apos;" glyph-name="quotesingle" horiz-adv-x="454" d="M356 1479Q356 1418 342 1215T319 922Q315 862 292 839T227 815Q186 815 163 838T135 922Q98 1357 98 1479Q98 1531 133 1568T227 1606T320 1569T356 1479Z" />
<glyph unicode="(" glyph-name="parenleft" horiz-adv-x="606" d="M471 1628L666 1507Q367 1046 367 489Q367 252 428 30T643 -449L434 -567Q235 -280 152 -23T68 502Q68 807 163 1076T471 1628Z" />
<glyph unicode=")" glyph-name="parenright" horiz-adv-x="606" d="M135 -567L-59 -446Q240 17 240 571Q240 809 179 1031T-37 1509L172 1628Q372 1341 455 1084T539 559Q539 255 444 -14T135 -567Z" />
<glyph unicode="*" glyph-name="asterisk" horiz-adv-x="757" d="M332 1341L285 1575H473L426 1341L430 1337L606 1501L698 1337L473 1264V1260L696 1184L602 1022L430 1184L426 1180L471 944H287L332 1180L328 1184L156 1022L61 1184L285 1260V1264L59 1337L152
1501L328 1337L332 1341Z" />
<glyph unicode="+" glyph-name="plus" horiz-adv-x="1228" d="M504 629V1036H725V629H1133V408H725V0H504V408H96V629H504Z" />
<glyph unicode="," glyph-name="comma" horiz-adv-x="606" d="M178 -457L45 -330Q139 -255 174 -196T209 -76Q209 -41 192 -9T153 45T114 99T96 166Q96 242 145 288T270 334Q376 334 436 249T496 51Q496 -250 178 -457Z" />
<glyph unicode="-" glyph-name="hyphen" horiz-adv-x="872" d="M137 487V733H735V487H137Z" />
<glyph unicode="." glyph-name="period" horiz-adv-x="606" d="M111 150Q111 237 165 285T303 334Q388 334 442 286T496 150Q496 70 445 18T303 -35Q214 -35 163 17T111 150Z" />
<glyph unicode="/" glyph-name="slash" horiz-adv-x="720" d="M-45 -98L559 1606L766 1532L162 -172L-45 -98Z" />
<glyph unicode="0" glyph-name="zero" horiz-adv-x="1212" d="M59 678Q59 852 90 989T175 1215T304 1361T460 1444T633 1468Q873 1468 1013 1276T1153 717Q1153 568 1123 444T1041 232T916 84T762 -6T588 -35Q500 -35 426 -15T282 57T165 187T88 392T59 678ZM371
702Q371 427 428 313T608 199Q655 199 694 222T767 301T822 462T842 717Q842 843 829 938T794 1088T741 1178T679 1223T612 1235Q562 1235 521 1210T445 1127T391 961T371 702Z" />
<glyph unicode="1" glyph-name="one" horiz-adv-x="1212" d="M244 0V209H520V1163Q464 1117 449 1106L201 940L84 1128L600 1434H819V209H1100V0H244Z" />
<glyph unicode="2" glyph-name="two" horiz-adv-x="1212" d="M49 0V197Q109 238 187 298T376 457T575 650T727 851T791 1038Q791 1091 772 1131T722 1192T658 1224T590 1235Q483 1235 419 1167T344 993H57Q57 1047 71 1105T125 1230T223 1348T380 1434T602 1468Q671
1468 737 1455T868 1410T981 1332T1060 1214T1090 1053Q1090 969 1056 882T969 717T828 551T658 390T457 225V221Q551 233 604 233H1133V0H49Z" />
<glyph unicode="3" glyph-name="three" horiz-adv-x="1212" d="M379 637V834Q475 834 547 855T661 913T723 993T743 1083Q743 1157 692 1202T559 1247Q466 1247 399 1188T332 1038H45Q45 1112 78 1186T173 1324T341 1428T578 1468Q784 1468 913 1369T1042 1106Q1042
977 960 879T748 762V758Q897 755 998 665T1100 412Q1100 376 1094 340T1071 258T1026 172T951 93T842 27T690 -18T492 -35Q229 -35 49 51V328Q260 211 469 211Q630 211 715 267T801 426Q801 479 776 518T711 579T613 614T500 632T379 637Z" />
<glyph unicode="4" glyph-name="four" horiz-adv-x="1212" d="M686 606V1171H682L303 600Q344 606 383 606H686ZM686 209V385H31V606L602 1434H973V606H1223V385H973V209H1114V0H547V209H686Z" />
<glyph unicode="5" glyph-name="five" horiz-adv-x="1212" d="M154 713V1434H1036V1225H440V934Q501 934 559 929T685 911T809 876T921 820T1013 739T1075 628T1098 483Q1098 244 939 105T492 -35Q300 -35 117 29V262Q167 237 278 218T483 199Q644 199 721 269T799
444Q799 592 654 651T154 713Z" />
<glyph unicode="6" glyph-name="six" horiz-adv-x="1212" d="M881 459Q881 573 811 640T637 707Q569 707 504 677T389 594Q389 387 461 293T651 199Q706 199 749 219T817 268T856 334T876 402T881 459ZM1112 1427L1094 1204Q941 1260 834 1260Q742 1260 668 1232T545
1158T462 1050T410 925T383 793L387 788Q513 928 721 928Q804 928 880 900T1017 817T1114 675T1151 481Q1151 408 1134 337T1079 198T983 79T840 -3T649 -35Q528 -35 428 6T251 130T133 343T90 645Q90 827 135 976T268 1235T497 1407T817 1468Q990 1468 1112 1427Z"
/>
<glyph unicode="7" glyph-name="seven" horiz-adv-x="1212" d="M102 1200V1434H1112V1253L608 244Q547 119 463 0H139Q234 136 299 258L735 1081Q772 1150 817 1200H102Z" />
<glyph unicode="8" glyph-name="eight" horiz-adv-x="1212" d="M104 1085Q104 1252 244 1360T631 1468Q738 1468 824 1446T964 1387T1055 1303T1107 1206T1122 1106Q1122 1012 1087 944T991 831T834 748V743Q984 704 1073 607T1163 373Q1163 282 1132 211T1048
95T921 19T765 -23T590 -35Q510 -35 437 -24T291 14T167 83T82 191T49 342Q49 478 138 576T391 725V729Q245 771 175 865T104 1085ZM836 1083Q836 1164 776 1205T612 1247Q513 1247 452 1199T391 1073Q391 1004 445 955T616 854Q740 917 788 965T836 1083ZM877
379Q877 454 816 508T596 616Q348 526 348 377Q348 299 416 243T606 186Q730 186 803 242T877 379Z" />
<glyph unicode="9" glyph-name="nine" horiz-adv-x="1212" d="M332 975Q332 861 402 794T575 727Q644 727 709 757T823 840Q823 1047 751 1141T561 1235Q506 1235 463 1215T396 1166T357 1100T337 1032T332 975ZM100 6L119 229Q274 174 379 174Q471 174 545 202T668
276T751 384T803 509T829 641L825 645Q698 506 492 506Q409 506 333 534T195 617T98 757T61 952Q61 1025 78 1096T134 1235T229 1354T372 1437T563 1468Q684 1468 784 1427T961 1303T1079 1090T1122 788Q1122 606 1077 457T944 198T716 26T395 -35Q223 -35 100
6Z" />
<glyph unicode=":" glyph-name="colon" horiz-adv-x="606" d="M111 911Q111 999 165 1047T303 1096Q388 1096 442 1048T496 911Q496 832 444 780T303 727T163 779T111 911ZM111 150Q111 237 165 285T303 334Q388 334 442 286T496 150Q496 70 445 18T303 -35Q214
-35 163 17T111 150Z" />
<glyph unicode=";" glyph-name="semicolon" horiz-adv-x="606" d="M178 -457L45 -330Q139 -255 174 -196T209 -76Q209 -41 192 -9T153 45T114 99T96 166Q96 242 145 288T270 334Q376 334 436 249T496 51Q496 -250 178 -457ZM111 911Q111 999 165 1047T303 1096Q388
1096 442 1048T496 911Q496 832 444 780T303 727T163 779T111 911Z" />
<glyph unicode="&lt;" glyph-name="less" horiz-adv-x="1228" d="M96 424V612L1133 1053V831L342 518L1133 205V-16L96 424Z" />
<glyph unicode="=" glyph-name="equal" horiz-adv-x="1228" d="M96 604V825H1133V604H96ZM96 211V432H1133V211H96Z" />
<glyph unicode="&gt;" glyph-name="greater" horiz-adv-x="1228" d="M887 518L96 831V1053L1133 612V424L96 -16V205L887 518Z" />
<glyph unicode="?" glyph-name="question" horiz-adv-x="985" d="M131 1333L121 1561Q320 1606 449 1606Q567 1606 659 1580T805 1513T894 1419T941 1319T954 1225Q954 1139 926 1068T853 950T753 865T644 797T544 740T470 679T442 606Q442 568 487 500L229 424Q156
524 156 627Q156 687 183 736T253 818T347 880T451 939T546 1001T616 1081T643 1186Q643 1279 571 1325T387 1372Q262 1372 131 1333ZM139 150Q139 237 193 285T332 334Q416 334 470 286T524 150Q524 70 473 18T332 -35Q242 -35 191 17T139 150Z" />
<glyph unicode="@" glyph-name="at" horiz-adv-x="1638" d="M999 797Q999 987 838 987Q759 987 693 930T592 790T557 627Q557 536 597 482T709 428Q790 428 859 490T963 637T999 797ZM1061 983L1098 1100H1243L1104 600Q1071 485 1071 463Q1071 440 1085 429T1139
418Q1179 418 1221 450T1297 536T1354 666T1376 823Q1376 926 1333 1015T1218 1164T1051 1259T852 1294Q683 1294 547 1213T336 998T262 711Q262 584 308 475T434 294T617 180T836 139Q992 139 1118 184T1327 311H1495Q1414 159 1243 67T836 -25Q677 -25 539 26T298
171T137 406T78 719Q78 874 134 1010T291 1245T536 1401T852 1458Q1052 1458 1213 1382T1468 1166T1561 848Q1561 734 1527 636T1438 474T1316 363T1182 297T1055 276Q983 276 948 308T911 395H907Q862 344 799 310T662 276Q544 276 465 365T385 600Q385 739 447
864T613 1064T829 1139Q982 1139 1061 983Z" />
<glyph unicode="A" glyph-name="A" horiz-adv-x="1593" d="M944 705L842 1004Q803 1112 788 1212H784Q765 1123 721 1004L610 705H944ZM1112 209L1020 483H526L424 209H561V0H29V209H143L647 1434H977L1450 209H1565V0H995V209H1112Z" />
<glyph unicode="B" glyph-name="B" horiz-adv-x="1327" d="M211 209V1225H57V1434H608Q772 1434 858 1421T1010 1366Q1159 1269 1159 1077Q1159 995 1129 930T1052 829T957 773T866 754V750Q1025 750 1135 656T1245 395Q1245 321 1216 254T1125 128T957 35T707
0H70V209H211ZM510 1225V848H649Q746 848 809 899T872 1044Q872 1225 653 1225H510ZM510 614V209H672Q796 209 859 267T922 418Q922 503 859 558T684 614H510Z" />
<glyph unicode="C" glyph-name="C" horiz-adv-x="1402" d="M1044 229L1057 489H1315L1303 47Q1091 -25 836 -25Q478 -25 274 172T70 707Q70 825 99 934T192 1139T345 1305T564 1417T848 1458Q1083 1458 1321 1374V975H1063V1204Q968 1237 860 1237Q736 1237 643
1195T497 1079T419 917T393 725Q393 654 405 588T451 451T537 328T677 243T877 209Q980 209 1044 229Z" />
<glyph unicode="D" glyph-name="D" horiz-adv-x="1554" d="M211 209V1225H57V1434H727Q1091 1434 1293 1258T1495 748Q1495 526 1405 357T1144 94T743 0H57V209H211ZM510 209H684Q759 209 827 226T959 283T1069 382T1143 533T1171 739Q1171 846 1145 930T1075
1069T968 1159T834 1210T680 1225H510V209Z" />
<glyph unicode="E" glyph-name="E" horiz-adv-x="1214" d="M866 209L883 451H1128L1112 0H82V209H211V1225H57V1434H1106L1118 1012H872L860 1225H510V848H870V627H510V209H866Z" />
<glyph unicode="F" glyph-name="F" horiz-adv-x="1175" d="M872 1012L860 1225H522V827H918V606H522V209H684V0H94V209H223V1225H70V1434H1106L1118 1012H872Z" />
<glyph unicode="G" glyph-name="G" horiz-adv-x="1478" d="M885 487V709H1450V487H1319V43Q1065 -25 836 -25Q478 -25 274 172T70 707Q70 828 99 937T192 1142T347 1308T570 1418T858 1458Q966 1458 1065 1443T1213 1414T1339 1372V973H1081V1208Q994 1237 879
1237Q748 1237 651 1195T499 1078T419 916T393 725Q393 654 405 588T451 451T537 328T677 243T877 209Q952 209 1032 221V487H885Z" />
<glyph unicode="H" glyph-name="H" horiz-adv-x="1593" d="M1092 827V1225H963V1434H1520V1225H1391V209H1520V0H963V209H1092V606H502V209H631V0H74V209H203V1225H74V1434H631V1225H502V827H1092Z" />
<glyph unicode="I" glyph-name="I" horiz-adv-x="720" d="M211 209V1225H82V1434H639V1225H510V209H639V0H82V209H211Z" />
<glyph unicode="J" glyph-name="J" horiz-adv-x="681" d="M82 1225V1434H639V1225H510V422Q510 254 482 129T389 -93T233 -263T2 -403L-104 -197Q10 -146 77 -70T177 135T211 459V1225H82Z" />
<glyph unicode="K" glyph-name="K" horiz-adv-x="1478" d="M82 0V209H211V1225H82V1434H639V1225H510V768L895 1130Q973 1203 1020 1221V1225H868V1434H1450V1225H1337L809 752L1362 209H1477V0H846V209H1014V213Q951 254 915 287L510 682V209H639V0H82Z" />
<glyph unicode="L" glyph-name="L" horiz-adv-x="1175" d="M874 209L891 465H1139L1118 0H94V209H223V1225H94V1434H651V1225H522V209H874Z" />
<glyph unicode="M" glyph-name="M" horiz-adv-x="1972" d="M1491 209V1034H1487Q1485 985 1432 846L1108 0H821L489 860Q434 1005 432 1049H428V209H578V0H70V209H195V1225H45V1434H571L940 481Q990 362 997 287H1001Q1004 326 1014 368T1035 438T1073 543L1407
1434H1927V1225H1778V209H1921V0H1370V209H1491Z" />
<glyph unicode="N" glyph-name="N" horiz-adv-x="1630" d="M78 0V209H211V1225H29V1434H444L1049 674Q1147 550 1169 481H1174V1225H1042V1434H1561V1225H1419V0H1198L516 856Q456 930 449 967H444V209H584V0H78Z" />
<glyph unicode="O" glyph-name="O" horiz-adv-x="1556" d="M70 717Q70 865 118 998T254 1234T477 1397T778 1458Q957 1458 1094 1402T1316 1245T1444 1011T1487 717Q1487 593 1462 485T1382 282T1245 120T1044 14T778 -25T512 13T312 119T175 281T95 484T70 717ZM393
717Q393 609 414 520T479 360T599 249T778 209Q861 209 926 235T1036 308T1109 419T1150 557T1163 717Q1163 823 1141 913T1073 1074T952 1185T778 1225Q680 1225 605 1185T484 1074T416 913T393 717Z" />
<glyph unicode="P" glyph-name="P" horiz-adv-x="1251" d="M223 209V1225H82V1434H674Q934 1434 1066 1327T1198 1010Q1198 807 1067 680T723 553H522V209H664V0H82V209H223ZM522 762H684Q795 762 853 824T911 997Q911 1107 850 1166T680 1225H522V762Z" />
<glyph unicode="Q" glyph-name="Q" horiz-adv-x="1556" d="M1686 -133V-330Q1620 -350 1540 -350Q1435 -350 1298 -299T1054 -188T847 -76T707 -25Q578 -25 463 25T261 168T122 403T70 717Q70 865 118 998T254 1234T477 1397T778 1458Q957 1458 1094 1402T1316
1245T1444 1011T1487 717Q1487 564 1449 436T1326 203T1114 43V39Q1179 24 1271 -22T1450 -105T1614 -141Q1644 -141 1686 -133ZM393 717Q393 609 414 520T479 360T599 249T778 209Q861 209 926 235T1036 308T1109 419T1150 557T1163 717Q1163 823 1141 913T1073
1074T952 1185T778 1225Q680 1225 605 1185T484 1074T416 913T393 717Z" />
<glyph unicode="R" glyph-name="R" horiz-adv-x="1327" d="M211 209V1225H70V1434H702Q824 1434 882 1423T1004 1380Q1098 1334 1147 1244T1196 1040Q1196 963 1166 894T1087 777T979 701T858 670V666Q914 661 952 631T1042 514L1171 299Q1201 247 1228 228T1288
209H1341V0H1112Q1050 0 1000 41T872 215L698 514Q655 586 580 586H510V209H639V0H82V209H211ZM510 1225V807H664Q897 807 897 1016Q897 1123 838 1174T645 1225H510Z" />
<glyph unicode="S" glyph-name="S" horiz-adv-x="1290" d="M866 1040V1214Q768 1249 674 1249Q603 1249 550 1232T468 1188T426 1130T412 1067Q412 996 455 963T582 909L754 866Q809 852 846 842T933 812T1018 772T1089 719T1147 650T1183 560T1198 446Q1198 232
1049 104T606 -25Q337 -25 92 55V434H391V246Q482 209 633 209Q759 209 823 262T887 401Q887 461 839 502T653 578L496 618Q277 674 189 768T100 1030Q100 1118 132 1193T229 1328T407 1423T666 1458Q942 1458 1137 1382V1040H866Z" />
<glyph unicode="T" glyph-name="T" horiz-adv-x="1400" d="M1120 1028L1108 1225H850V209H979V0H422V209H551V1225H293L281 1028H35L47 1434H1354L1366 1028H1120Z" />
<glyph unicode="U" glyph-name="U" horiz-adv-x="1554" d="M940 1225V1434H1497V1225H1368V569Q1368 402 1333 288T1221 105T1033 5T760 -25Q621 -25 520 0T355 68T253 179T201 323T186 500V1225H57V1434H614V1225H485V551Q485 469 498 409T544 303T634 233T776
209Q836 209 883 218T971 250T1040 312T1082 410T1098 551V1225H940Z" />
<glyph unicode="V" glyph-name="V" horiz-adv-x="1554" d="M981 1225V1434H1538V1225H1427L946 0H612L131 1225H16V1434H598V1225H477L758 406Q791 306 801 233H805Q816 315 848 406L1128 1225H981Z" />
<glyph unicode="W" glyph-name="W" horiz-adv-x="2314" d="M1753 1225V1434H2310V1225H2195L1716 0H1399L1171 672H1167L922 0H598L119 1225H4V1434H586V1225H465L745 406Q777 315 788 233H793Q804 315 836 406L1051 1024L977 1225H842V1434H1411V1225H1282L1534
406Q1567 296 1575 233H1579Q1589 306 1622 406L1903 1225H1753Z" />
<glyph unicode="X" glyph-name="X" horiz-adv-x="1478" d="M911 1225V1434H1407V1225H1303L907 754L1329 209H1452V0H846V209H965V213Q931 235 893 285L713 522L510 283Q465 230 432 213V209H559V0H27V209H145L573 702L174 1225H55V1434H662V1225H524V1221Q566
1200 600 1153L772 930L981 1167Q1007 1200 1047 1221V1225H911Z" />
<glyph unicode="Y" glyph-name="Y" horiz-adv-x="1517" d="M977 1225V1434H1497V1225H1384L909 571V209H1038V0H483V209H610V569L133 1225H20V1434H590V1225H475Q518 1179 551 1133L788 784L1044 1135Q1074 1174 1120 1225H977Z" />
<glyph unicode="Z" glyph-name="Z" horiz-adv-x="1327" d="M76 0V199L795 1122Q845 1189 893 1221V1225H401L389 1034H131L143 1434H1239V1225L535 311Q479 239 436 213V209H979L991 399H1251L1235 0H76Z" />
<glyph unicode="[" glyph-name="bracketleft" horiz-adv-x="606" d="M147 -514V1575H596V1366H434V-305H606V-514H147Z" />
<glyph unicode="\" glyph-name="backslash" horiz-adv-x="720" d="M559 -172L-45 1532L162 1606L766 -98L559 -172Z" />
<glyph unicode="]" glyph-name="bracketright" horiz-adv-x="606" d="M172 -305V1366H0V1575H459V-514H10V-305H172Z" />
<glyph unicode="^" glyph-name="asciicircum" horiz-adv-x="1228" d="M881 686L614 1212L348 686H127L492 1434H737L1102 686H881Z" />
<glyph unicode="_" glyph-name="underscore" horiz-adv-x="1024" d="M0 -256V-154H1024V-256H0Z" />
<glyph unicode="`" glyph-name="grave" horiz-adv-x="679" d="M-63 1542L82 1686L526 1327L373 1204L-63 1542Z" />
<glyph unicode="a" glyph-name="a" horiz-adv-x="1214" d="M764 631V682Q764 799 716 843T561 887Q528 887 473 878T383 856V713H137V985Q210 1026 324 1061T565 1096Q677 1096 760 1075T906 1007T1001 879T1034 684Q1034 586 1024 209H1145V0H784V66Q784 157
799 213H795Q740 89 659 32T444 -25Q272 -25 179 64T86 287Q86 395 147 472T301 582Q438 631 764 631ZM760 455H680Q511 455 442 421T373 313Q373 260 412 222T530 184Q626 184 693 251T760 455Z" />
<glyph unicode="b" glyph-name="b" horiz-adv-x="1251" d="M121 66V1366H-43V1575H408V1155Q408 1088 387 868H391Q491 1096 754 1096Q937 1096 1052 968T1167 606Q1167 513 1149 428T1088 258T978 113T806 13T569 -25T308 3T121 66ZM401 592V248Q431 232 484
221T584 209Q659 209 717 239T811 320T863 436T881 573Q881 632 870 681T833 772T760 838T649 862Q581 862 531 839T453 777T414 691T401 592Z" />
<glyph unicode="c" glyph-name="c" horiz-adv-x="1024" d="M719 731V874Q663 887 621 887Q552 887 499 858T414 781T366 678T350 565Q350 494 369 432T427 319T533 239T690 209Q831 209 958 268L942 27Q863 -3 795 -14T621 -25Q488 -25 381 18T205 138T100 316T63
535Q63 793 216 944T627 1096Q799 1096 965 1044V731H719Z" />
<glyph unicode="d" glyph-name="d" horiz-adv-x="1327" d="M838 1071V1366H674V1575H1124V209H1247V0H844Q844 105 868 207H864Q763 -25 500 -25Q411 -25 332 7T193 99T98 254T63 465Q63 558 81 643T143 813T253 958T425 1058T662 1096Q747 1096 838 1071ZM829
520V823Q800 839 747 850T647 862Q572 862 516 834T427 759T378 654T362 532Q362 401 421 311T582 221Q693 221 761 307T829 520Z" />
<glyph unicode="e" glyph-name="e" horiz-adv-x="1175" d="M1120 471H375Q381 344 472 271T715 197Q815 197 891 213T1061 270L1047 43Q861 -25 651 -25Q530 -25 432 4T266 85T152 206T84 358T63 530Q63 784 208 940T602 1096Q710 1096 797 1064T944 976T1044
841T1102 669T1120 471ZM373 668H809Q809 777 751 838T592 899Q495 899 439 839T373 668Z" />
<glyph unicode="f" glyph-name="f" horiz-adv-x="720" d="M180 209V862H33V1071H180V1186Q180 1397 296 1501T653 1606Q749 1606 858 1583V1374Q797 1397 723 1397Q588 1397 528 1344T467 1182V1071H692V862H467V209H621V0H57V209H180Z" />
<glyph unicode="g" glyph-name="g" horiz-adv-x="1214" d="M1174 1071V874H989Q1059 789 1059 668Q1059 577 1023 505T923 389T779 322T608 299H506Q479 299 458 282T436 242Q436 215 453 202T512 184L866 145Q1010 129 1081 63T1153 -137Q1153 -187 1137 -239T1080
-346T978 -443T815 -512T588 -539Q463 -539 366 -522T210 -476T113 -410T61 -333T47 -252Q47 -66 283 -10V-6Q209 10 173 46T137 154Q137 204 168 242T243 301T344 332V336Q76 422 76 690Q76 876 206 986T557 1096Q630 1096 782 1071H1174ZM346 690Q346 606 406
557T573 508Q697 508 755 564T813 700Q813 783 748 835T584 887Q481 887 414 838T346 690ZM741 -96L436 -63Q389 -80 353 -113T317 -188Q317 -330 606 -330Q712 -330 797 -291T883 -182Q883 -136 852 -120T741 -96Z" />
<glyph unicode="h" glyph-name="h" horiz-adv-x="1402" d="M197 209V1366H33V1575H477V1071Q477 928 461 850H465Q506 960 603 1028T836 1096Q1022 1096 1114 986T1206 678V209H1329V0H803V209H920V649Q920 850 733 850Q608 850 546 772T483 565V209H606V0H80V209H197Z" />
<glyph unicode="i" glyph-name="i" horiz-adv-x="679" d="M197 209V862H57V1071H483V209H606V0H80V209H197ZM137 1427Q137 1508 189 1557T330 1606Q418 1606 470 1557T522 1427Q522 1347 470 1298T330 1249Q241 1249 189 1298T137 1427Z" />
<glyph unicode="j" glyph-name="j" horiz-adv-x="681" d="M57 862V1071H483V233Q483 -148 333 -330T-123 -539L-156 -311Q38 -272 117 -136T197 258V862H57ZM137 1427Q137 1508 189 1557T330 1606Q418 1606 470 1557T522 1427Q522 1347 470 1298T330 1249Q241
1249 189 1298T137 1427Z" />
<glyph unicode="k" glyph-name="k" horiz-adv-x="1290" d="M98 0V209H215V1366H51V1575H502V614L788 834Q815 852 831 858V862H684V1071H1229V862H1135L801 596L1159 209H1278V0H709V209H821V213Q778 239 731 289L502 545V209H600V0H98Z" />
<glyph unicode="l" glyph-name="l" horiz-adv-x="643" d="M178 209V1366H14V1575H465V209H588V0H61V209H178Z" />
<glyph unicode="m" glyph-name="m" horiz-adv-x="2084" d="M1495 0V209H1599V649Q1599 850 1413 850Q1309 850 1248 772T1186 565V209H1309V0H795V209H899V649Q899 850 713 850Q603 850 544 771T485 565V209H608V0H82V209H199V862H59V1071H479Q479 928 463 854H467Q511
971 607 1033T838 1096Q971 1096 1051 1035T1153 854H1157Q1196 969 1286 1032T1516 1096Q1701 1096 1793 986T1886 678V209H2009V0H1495Z" />
<glyph unicode="n" glyph-name="n" horiz-adv-x="1402" d="M197 209V862H57V1071H477Q477 928 461 850H465Q506 960 603 1028T836 1096Q1022 1096 1114 986T1206 678V209H1329V0H803V209H920V649Q920 850 733 850Q608 850 546 772T483 565V209H606V0H92V209H197Z" />
<glyph unicode="o" glyph-name="o" horiz-adv-x="1253" d="M63 524Q63 639 102 743T213 925T391 1050T627 1096Q898 1096 1044 949T1190 524Q1190 282 1036 129T627 -25Q365 -25 214 116T63 524ZM375 518Q375 209 627 209T879 518Q879 692 819 777T627 862Q501
862 438 768T375 518Z" />
<glyph unicode="p" glyph-name="p" horiz-adv-x="1327" d="M180 -305V862H16V1071H463Q465 999 444 868H449Q551 1096 813 1096Q996 1096 1111 968T1227 606Q1227 513 1209 428T1147 258T1037 113T866 13T629 -25Q552 -25 467 -6V-305H590V-514H63V-305H180ZM461
592V238Q536 209 643 209Q718 209 776 239T870 320T922 436T940 573Q940 632 929 681T892 772T820 838T709 862Q640 862 590 839T513 776T474 691T461 592Z" />
<glyph unicode="q" glyph-name="q" horiz-adv-x="1327" d="M848 -305V-111Q848 88 870 203H866Q819 86 739 31T522 -25Q332 -25 210 107T88 465Q88 557 108 643T176 813T294 958T472 1058T713 1096Q823 1096 937 1070T1135 1006V-305H1262V-514H733V-305H848ZM854
520V823Q824 839 772 850T672 862Q597 862 541 834T452 759T403 654T387 532Q387 401 446 311T606 221Q717 221 785 307T854 520Z" />
<glyph unicode="r" glyph-name="r" horiz-adv-x="872" d="M215 209V862H76V1071H492Q492 962 473 825H477Q541 1096 784 1096Q821 1096 879 1083L860 827Q811 838 768 838Q649 838 576 762T502 555V209H637V0H98V209H215Z" />
<glyph unicode="s" glyph-name="s" horiz-adv-x="1099" d="M709 760V868Q623 899 543 899Q450 899 400 867T350 786Q350 746 368 729T446 702L672 670Q857 644 938 568T1020 346Q1020 271 993 207T908 90T750 6T514 -25Q415 -25 296 -6T92 43V344H350V219Q453
184 541 184Q569 184 599 189T666 207T726 248T750 315Q750 361 715 386T588 424L346 461Q80 501 80 745Q80 822 108 883T182 983T290 1048T416 1085T551 1096Q752 1096 967 1024V760H709Z" />
<glyph unicode="t" glyph-name="t" horiz-adv-x="757" d="M197 1071V1292L483 1309V1071H770V862H483V385Q483 273 516 235T641 197Q695 197 780 229L770 27Q621 -25 520 -25Q362 -25 280 48T197 262V862H51V1071H197Z" />
<glyph unicode="u" glyph-name="u" horiz-adv-x="1366" d="M754 862V1071H1176V209H1300V0H899Q899 170 926 221H922Q871 94 781 35T551 -25Q373 -25 282 75T190 350V862H47V1071H477V471Q477 419 480 385T494 314T525 257T580 223T666 209Q761 209 825 281T889
477V862H754Z" />
<glyph unicode="v" glyph-name="v" horiz-adv-x="1214" d="M719 862V1071H1231V862H1133L766 0H455L82 862H-16V1071H512V862H412L606 334Q622 290 627 246H631Q636 294 651 334L840 862H719Z" />
<glyph unicode="w" glyph-name="w" horiz-adv-x="1896" d="M1380 862V1071H1892V862H1794L1423 0H1124L981 371Q961 422 956 463H952Q944 410 926 371L764 0H465L104 862H4V1071H516V862H416Q443 816 467 743L598 381Q621 313 631 258H635Q642 287 682 383L842
739L793 862H678V1071H1198V862H1087Q1110 824 1139 743L1272 381Q1290 331 1305 258H1309Q1321 328 1341 381L1470 743Q1499 824 1522 862H1380Z" />
<glyph unicode="x" glyph-name="x" horiz-adv-x="1327" d="M762 862V1071H1237V862H1128L819 569L1157 209H1270V0H707V209H823V213Q801 221 778 244L635 395L471 244Q451 222 426 213V209H551V0H57V209H166L508 528L193 862H76V1071H641V862H528V858Q551 846
592 807L694 698L811 807Q848 844 874 858V862H762Z" />
<glyph unicode="y" glyph-name="y" horiz-adv-x="1251" d="M752 862V1071H1231V862H1133L803 -23Q745 -179 692 -276T574 -434T436 -516T260 -539Q216 -539 104 -514V-293Q197 -317 260 -317Q350 -317 401 -270T528 -72L119 862H20V1071H553V862H442Q463 838 481
788L616 424Q651 330 666 221H670Q683 327 719 424L846 788Q864 838 885 862H752Z" />
<glyph unicode="z" glyph-name="z" horiz-adv-x="1138" d="M82 0V209L643 815Q670 845 696 858V862H362L354 721H109L117 1071H1047V864L492 258Q458 222 432 213V209H801L805 358H1057L1040 0H82Z" />
<glyph unicode="{" glyph-name="braceleft" horiz-adv-x="606" d="M0 453V608Q73 611 116 679T160 846V1270Q160 1414 241 1494T449 1575H614V1423H559Q495 1423 471 1383T446 1264V846Q446 722 387 641T233 532V528Q328 501 387 420T446 215V-203Q446 -281 470
-321T559 -362H614V-514H449Q323 -514 242 -434T160 -209V215Q160 313 117 381T0 453Z" />
<glyph unicode="|" glyph-name="bar" horiz-adv-x="454" d="M117 -512V1536H338V-512H117Z" />
<glyph unicode="}" glyph-name="braceright" horiz-adv-x="606" d="M606 608V453Q533 450 490 382T446 215V-209Q446 -353 365 -433T158 -514H-8V-362H47Q111 -362 135 -322T160 -203V215Q160 339 219 420T373 528V532Q278 560 219 641T160 846V1264Q160 1342
136 1382T47 1423H-8V1575H158Q284 1575 365 1495T446 1270V846Q446 748 489 680T606 608Z" />
<glyph unicode="~" glyph-name="asciitilde" horiz-adv-x="1228" d="M215 328L141 524Q185 615 247 656T397 698Q485 698 635 629Q642 626 667 615T701 600T729 587T760 575T785 567T812 561T834 559Q878 559 920 595T1014 709L1087 512Q1043 421 981 380T831
338Q779 338 713 359T594 407T485 455T395 477Q351 477 309 442T215 328Z" />
</font>
</defs>
</svg>
